<svg width="300" height="220" viewBox="0 0 300 220" fill="none" xmlns="http://www.w3.org/2000/svg">
<g clip-path="url(#clip0_114_21)">
<path d="M56.1501 218.419C87.0347 218.419 112.072 214.577 112.072 209.837C112.072 205.096 87.0347 201.254 56.1501 201.254C25.2655 201.254 0.228516 205.096 0.228516 209.837C0.228516 214.577 25.2655 218.419 56.1501 218.419Z" fill="#DFDFEB"/>
<path d="M147.553 220.136C203.347 220.136 248.578 216.293 248.578 211.553C248.578 206.813 203.347 202.971 147.553 202.971C91.7579 202.971 46.5273 206.813 46.5273 211.553C46.5273 216.293 91.7579 220.136 147.553 220.136Z" fill="#DFDFEB"/>
<path d="M120.07 -0.03138C109.638 0.252152 101.006 8.588 100.406 18.9821C100.053 25.0938 102.427 30.6552 106.423 34.579C107.013 35.1586 107.288 35.9851 107.15 36.8L105.649 45.6583L114.882 40.2916C115.408 39.986 116.027 39.8737 116.624 39.9939C118.881 40.4481 121.272 40.5316 123.736 40.1593C132.857 38.781 139.973 31.2485 140.814 22.0841C141.934 9.8702 132.155 -0.359542 120.07 -0.03138Z" fill="#D3DDF7"/>
<path d="M119.711 27.1748L119.654 22.3416C120.361 22.1699 121.006 21.9462 121.589 21.6695C122.172 21.3933 122.683 21.0741 123.123 20.7113C123.562 20.3495 123.93 19.9442 124.227 19.4958C124.523 19.0479 124.747 18.5664 124.901 18.0518C125.053 17.5373 125.13 16.9938 125.13 16.4221C125.13 15.6024 124.929 14.8301 124.527 14.1055C124.126 13.3814 123.552 12.7949 122.807 12.3465C122.062 11.8987 121.173 11.6745 120.141 11.6745C119.033 11.6745 118.005 11.9795 117.06 12.5896C116.113 13.2003 115.392 14.2389 114.895 15.7069L114.38 15.3635C114.819 13.9721 115.555 12.9042 116.587 12.1607C117.619 11.4167 118.794 11.0449 120.113 11.0449C121.241 11.0449 122.23 11.2838 123.08 11.7601C123.93 12.2368 124.594 12.8805 125.072 13.6907C125.55 14.5009 125.789 15.4113 125.789 16.4221C125.789 17.185 125.66 17.8996 125.402 18.5669C125.144 19.2343 124.781 19.8444 124.313 20.3973C123.844 20.9507 123.276 21.4317 122.607 21.8412C121.938 22.2518 121.183 22.5611 120.342 22.7711L120.285 27.1753L119.711 27.1748ZM119.368 30.7782C119.368 30.5304 119.434 30.3256 119.568 30.1634C119.702 30.0017 119.884 29.9203 120.113 29.9203C120.38 29.9203 120.571 29.9969 120.686 30.1492C120.801 30.302 120.858 30.5115 120.858 30.7782C120.858 31.0072 120.796 31.2072 120.672 31.3789C120.547 31.5506 120.361 31.6362 120.112 31.6362C119.863 31.6362 119.678 31.5595 119.553 31.4073C119.428 31.255 119.368 31.0455 119.368 30.7782Z" fill="black"/>
<path d="M61.4293 197.758L62.3283 204.517C62.3283 204.517 79.1814 211.679 77.6183 211.782C76.0551 211.886 51.8362 210.327 51.8362 210.327L53.2614 198.056L61.4293 197.758Z" fill="black"/>
<path d="M56.7347 87.415C56.7347 87.415 55.3915 100.31 54.3847 100.98C53.3773 101.65 52.0347 101.985 52.0347 101.985L54.2168 87.248L56.7347 87.415Z" stroke="#424242" stroke-miterlimit="10"/>
<path d="M30.1216 78.5488C30.1216 78.5488 23.2906 93.9368 25.2737 102.51L63.1401 96.7479L62.3501 80.762L30.1216 78.5488Z" fill="black"/>
<path d="M63.14 96.7487C63.14 96.7487 63.3543 133.668 63.6174 146.531C63.8806 159.394 66.1353 199.118 66.1353 199.118C66.1353 199.118 59.0643 203.007 51.6995 199.864C51.1106 199.613 44.7664 96.4043 44.7664 96.4043L63.14 96.7487Z" fill="black"/>
<path d="M25.901 97.9415L9.92261 199.456C9.92261 199.456 16.9005 205.978 25.7147 200.042L41.9621 117.123L49.8521 111.838L51.0273 96.7129L25.901 97.9415Z" fill="black"/>
<path d="M21.7053 196.942L23.16 202.773C23.16 202.773 33.7921 215.53 32.2253 215.53C30.6584 215.53 13.1995 207.633 13.1995 207.633L15.4379 195.484L21.7053 196.942Z" fill="black"/>
<path d="M31.7374 84.7793C31.7374 84.7793 21.6679 127.014 14.1826 201.581" stroke="#424242" stroke-miterlimit="10"/>
<path d="M38.642 89.3223C38.642 89.3223 35.1162 98.1154 29.093 98.2619" stroke="#424242" stroke-miterlimit="10"/>
<path d="M53.5346 200.473L48.3831 113.088L53.4157 107.822" stroke="#424242" stroke-miterlimit="10"/>
<path d="M53.4673 34.3388C56.0873 33.8037 57.9994 33.4199 57.9994 33.4199L74.3404 42.3234C74.3683 42.3386 74.3962 42.3538 74.4241 42.369C79.7788 45.3167 82.1457 50.3179 82.0046 57.3269L82.7983 67.48L73.9431 60.3114L66.4573 74.7122L61.703 91.7131C36.3325 100.917 26.4778 84.3922 26.4778 84.3922L34.8836 66.2393L38.2788 49.4741C39.892 40.871 44.8736 36.0941 53.4673 34.3388Z" fill="#014479"/>
<path d="M190.648 63.0174C190.648 63.0174 188.088 73.7013 173.6 86.737C173.6 86.737 172.218 84.7858 175.31 77.267C178.404 69.7487 190.041 60.3517 190.648 63.0174Z" fill="#6277FF"/>
<path d="M190.648 63.0176C190.648 63.0176 177.855 70.9644 173.6 86.7371C173.6 86.7371 172.623 92.1773 174.2 97.0456" stroke="black" stroke-miterlimit="10" stroke-linecap="round"/>
<path d="M157.208 69.6428C157.208 69.6428 160.806 67.268 155.318 60.4112C150.105 53.8973 144.522 47.9988 133.046 45.2344C133.046 45.2344 135.541 61.1405 142.864 65.3625C150.186 69.584 157.208 69.6428 157.208 69.6428Z" fill="#6277FF"/>
<path d="M128.298 79.3724C128.298 79.3724 140.237 82.7816 161.213 77.258C161.213 77.258 160.076 75.0585 150.945 73.7595C141.814 72.4605 126.02 77.4596 128.298 79.3724Z" fill="#6277FF"/>
<path d="M128.298 79.3723C128.298 79.3723 143.318 72.6289 161.213 77.2578C161.213 77.2578 163.046 77.8422 164.782 80.4922" stroke="black" stroke-miterlimit="10" stroke-linecap="round"/>
<path d="M137.63 90.9585C137.63 90.9585 150.041 100.296 171.017 94.7725C171.017 94.7725 167.486 87.3093 158.356 86.0103C149.225 84.7113 135.354 89.0457 137.63 90.9585Z" fill="#6277FF"/>
<path d="M137.63 90.9589C137.63 90.9589 152.014 85.3513 171.017 94.773C171.017 94.773 173.248 95.9396 174.982 98.5896" stroke="black" stroke-miterlimit="10" stroke-linecap="round"/>
<path d="M184.152 52.3306C184.152 52.3306 188.005 52.118 178.12 60.1335C168.786 67.7017 169.902 67.8372 169.902 67.8372C169.902 67.8372 174.028 55.8826 184.152 52.3306Z" fill="black"/>
<path d="M163.227 71.5476C163.227 71.5476 166.013 72.8288 171.467 68.4419C176.922 64.055 179.518 53.6667 184.152 52.332C184.152 52.332 172.552 55.2676 163.227 71.5476Z" fill="#6277FF"/>
<path d="M179.638 108.86C174.578 96.8115 167.363 83.0303 157.208 69.6428C157.208 69.6428 154.74 65.9496 145.964 56.2239C137.187 46.4982 133.047 45.2344 133.047 45.2344" stroke="black" stroke-miterlimit="10" stroke-linecap="round"/>
<path d="M182.774 52.8066C182.774 52.8066 171.657 56.8228 163.227 71.5481C161.185 75.1154 163.158 78.1681 164.781 80.493" stroke="black" stroke-miterlimit="10" stroke-linecap="round"/>
<path d="M295.326 191.572C295.326 191.572 284.544 194.8 266.553 183.169C266.553 183.169 267.735 180.045 275.872 179.542C284.009 179.039 297.486 189.059 295.326 191.572Z" fill="#6277FF"/>
<path d="M294.922 190.782C294.922 190.782 283.079 181.485 266.764 182.862C266.764 182.862 261.303 183.796 257.252 186.933" stroke="black" stroke-miterlimit="10" stroke-linecap="round"/>
<path d="M271.858 167.598C271.858 167.598 275.321 170.166 279.917 162.685C284.283 155.578 287.943 148.333 286.644 136.627C286.644 136.627 272.5 144.38 271.012 152.685C269.524 160.991 271.858 167.598 271.858 167.598Z" fill="#6277FF"/>
<path d="M299.668 180.961C299.668 180.961 301.931 184.079 289.827 180.121C278.397 176.384 278.887 177.393 278.887 177.393C278.887 177.393 291.197 174.387 299.668 180.961Z" fill="black"/>
<path d="M272.148 173.799C272.148 173.799 272.574 176.829 279.224 179.033C285.873 181.237 296.035 177.795 299.667 180.961C299.667 180.961 290.917 172.816 272.148 173.799Z" fill="#6277FF"/>
<path d="M242.525 201.984C252.16 193.137 262.694 181.68 271.858 167.598C271.858 167.598 274.499 164.026 280.68 152.483C286.861 140.941 286.643 136.627 286.643 136.627" stroke="black" stroke-miterlimit="10" stroke-linecap="round"/>
<path d="M298.522 180.06C298.522 180.06 289.122 172.905 272.148 173.798C268.036 174.014 266.173 176.011 263.091 179.847" stroke="black" stroke-miterlimit="10" stroke-linecap="round"/>
<path d="M183.206 84.5227C186.505 84.5227 189.7 83.3676 192.233 81.2589L199.262 75.4077C201.792 73.3022 204.796 72.1738 207.874 72.1738H242.758C245.923 72.1738 248.489 74.734 248.489 77.8917V84.5222V203.877C248.489 209.326 244.061 213.744 238.599 213.744H64.708C60.4596 213.744 57.0154 210.308 57.0154 206.069V92.197C57.0154 87.9587 60.4596 84.5227 64.708 84.5227H183.206Z" fill="#2941D8"/>
<path d="M57.0158 206.713C57.0158 206.713 68.85 184.568 70.0337 182.024L102.376 116.291C103.19 114.544 104.944 113.427 106.875 113.427H227.063C231.433 113.427 237.752 111.142 241.107 108.349L245.957 104.312C248.486 102.206 251.491 101.078 254.569 101.078H287.766C291.3 101.078 293.7 104.659 292.35 107.917L252.207 204.774C249.957 210.203 244.648 213.744 238.76 213.744H59.1864C58.0158 213.744 56.9348 212.744 56.9353 211.576L57.0158 206.713Z" fill="#014479"/>
<path d="M105.902 119.678L58.4431 211.714" stroke="black" stroke-miterlimit="10" stroke-linejoin="round"/>
<path d="M125.458 135.538H166.339C167.454 135.538 168.492 134.978 169.09 134.054C170.471 131.922 168.912 129.131 166.339 129.131H125.458C124.343 129.131 123.306 129.691 122.707 130.614C121.326 132.747 122.885 135.538 125.458 135.538Z" stroke="black" stroke-miterlimit="10" stroke-linejoin="round"/>
<path d="M201.931 167.17L170.101 186.088" stroke="black" stroke-miterlimit="10" stroke-linecap="round" stroke-linejoin="round"/>
<path d="M175.907 166.258L195.907 186.202" stroke="black" stroke-miterlimit="10" stroke-linecap="round" stroke-linejoin="round"/>
<path d="M191.225 193.873C203.964 190.358 212.134 179.724 209.471 170.122C206.809 160.52 194.323 155.586 181.583 159.101C168.843 162.617 160.674 173.251 163.337 182.853C165.999 192.455 178.485 197.389 191.225 193.873Z" stroke="black" stroke-miterlimit="10" stroke-linecap="round" stroke-linejoin="round"/>
<path d="M65.1374 77.2617L71.04 83.8743C71.04 83.8743 65.5026 90.3924 59.8784 86.5316L58.9763 85.2405L65.1374 77.2617Z" fill="#014479"/>
<path d="M51.4214 37.8047C51.4214 37.8047 59.5088 39.9186 53.1456 63.2423" stroke="black" stroke-miterlimit="10" stroke-linecap="round"/>
<path d="M65.6326 77.9553C61.2663 73.0612 55.9295 66.9117 52.7769 62.6719" stroke="black" stroke-miterlimit="10" stroke-linecap="round"/>
<path d="M59.8784 86.5306C55.6879 82.2446 50.0252 76.1439 47.5537 73.883C43.7021 70.3593 39.7047 64.6897 41.0079 57.4061L40.8515 51.5664" stroke="black" stroke-miterlimit="10" stroke-linecap="round"/>
<path d="M85.033 83.4012C79.8725 80.6194 77.4951 77.1756 75.5051 74.6227C70.7578 68.5336 69.0757 67.7796 70.4667 60.6924L70.543 53.2754L80.8425 64.3951C84.7757 69.6 93.843 78.9309 97.193 82.6073C97.193 82.6073 93.2604 87.8359 85.033 83.4012Z" fill="#014479"/>
<path d="M64.0285 81.5227C64.5032 81.393 64.9953 81.3531 65.4848 81.4046C67.2511 81.591 71.9843 82.0866 72.5185 82.0935C73.1764 82.1019 73.7111 81.1221 75.1227 84.6741C76.5343 88.2256 76.2811 88.5564 76.2727 89.0206C76.2648 89.4847 75.2406 96.3047 74.1406 95.2803C73.0406 94.2559 73.1885 93.6595 73.1885 93.6595C73.1885 93.6595 72.5953 96.4292 72.2832 96.3226C71.9711 96.2155 70.8148 96.2123 71.0001 94.2565C71.0001 94.2565 70.3695 96.1577 69.7195 95.6846C69.0695 95.2121 69.2153 93.157 69.2153 93.157C69.2153 93.157 68.5196 94.6996 67.7248 93.67C66.9306 92.6398 67.5222 90.2545 67.5222 90.2545L66.8564 88.4819L65.4159 87.8607C65.4159 87.8607 60.5669 89.1261 59.7327 85.7684C59.0922 83.1882 62.4427 81.9554 64.0285 81.5227Z" fill="#FFC3A7"/>
<path d="M73.7816 85.875L74.6922 89.6922L73.1885 93.658" stroke="black" stroke-miterlimit="10" stroke-linecap="round"/>
<path d="M71.4445 85.7344L72.624 89.6466L70.9998 94.2551" stroke="black" stroke-miterlimit="10" stroke-linecap="round"/>
<path d="M69.3939 86.1719L70.0807 89.9334L69.2949 92.7509" stroke="black" stroke-miterlimit="10" stroke-linecap="round"/>
<path d="M65.4337 13.6504C63.7132 15.2571 63.6879 17.2108 63.6879 17.2108C63.6879 17.2108 63.0963 16.482 62.3647 16.2479" stroke="black" stroke-miterlimit="10" stroke-linecap="round"/>
<path d="M90.0111 80.431C91.6474 80.0367 93.3727 80.3034 94.8706 81.0689C96.8416 82.0765 99.9206 83.637 100.322 83.7567C100.918 83.9342 101.307 83.6123 101.386 87.2252C101.417 88.6529 101.413 89.6384 101.286 90.059C101.158 90.479 98.2653 94.7908 97.3153 94.1839C97.2895 94.1671 97.2716 94.1534 97.248 94.1377C97.0069 94.4606 96.6843 94.8565 96.3674 95.1263C96.1301 95.3285 94.809 95.3012 95.4848 93.5701C95.4848 93.5701 94.569 95.5711 93.8569 95.3043C92.929 94.9567 93.0795 94.0668 93.418 93.3138C92.9869 93.8945 92.4532 94.3676 92.0737 93.8651C91.329 92.8791 93.0158 89.3722 93.0158 89.3722L93.2127 87.2483L91.9253 86.099C91.9253 86.099 87.3237 86.2114 87.4359 82.9418C87.4869 81.4417 88.7058 80.7455 90.0111 80.431Z" fill="#FFC3A7"/>
<path d="M100.11 85.9023L100.051 89.7762L97.2185 93.888" stroke="black" stroke-miterlimit="10" stroke-linecap="round"/>
<path d="M98.0985 85.9336L97.877 89.9267L95.4849 93.5706" stroke="black" stroke-miterlimit="10" stroke-linecap="round"/>
<path d="M96.0565 86.0371L95.7696 89.3996L93.728 92.7778" stroke="black" stroke-miterlimit="10" stroke-linecap="round"/>
<path d="M90.2338 85.1401C90.2338 85.1401 90.6959 88.606 89.5743 89.3668C88.4532 90.1277 86.6448 82.9601 87.8885 82.8687C89.7111 82.7343 90.2338 85.1401 90.2338 85.1401Z" fill="#FFC3A7"/>
<path d="M91.7621 84.6406C91.7621 84.6406 90.6468 84.8191 90.3284 86.1255" stroke="black" stroke-miterlimit="10" stroke-linecap="round"/>
<path d="M70.1194 67.8649L75.5404 60.8165C80.4962 54.2758 77.1936 47.3613 77.1936 47.3613" stroke="black" stroke-miterlimit="10" stroke-linecap="round"/>
<path d="M82.7989 67.4809C82.7989 67.4809 79.6052 63.0636 78.8794 65.0189" stroke="black" stroke-miterlimit="10" stroke-linecap="round"/>
<path d="M84.0325 30.7186L83.113 30.5254" stroke="white" stroke-miterlimit="10"/>
<path d="M64.8104 29.8633L57.9994 33.419C57.9994 33.419 57.8204 41.4828 65.4694 47.6119L68.9041 44.2825L72.3657 47.7368C72.3657 47.7368 73.6825 46.7051 74.0736 42.0231L73.4562 36.3388L64.8104 29.8633Z" fill="white"/>
<path d="M73.4569 36.3388L64.8106 29.8633L57.9995 33.419" stroke="black" stroke-miterlimit="10" stroke-linecap="round" stroke-linejoin="round"/>
<path d="M62.833 31.0868C62.833 31.0868 64.9388 43.37 68.0567 44.2405C71.1741 45.1106 73.1188 38.9684 73.1188 38.9684L67.082 22.2012L62.833 31.0868Z" fill="#FFC3A7"/>
<path d="M74.2767 40.4469L74.3141 41.9737C74.3425 41.9895 74.252 42.4452 72.7341 42.619C66.0652 42.4206 65.5373 34.9343 64.9946 28.9785C64.9946 28.9785 74.8925 39.2581 74.2767 40.4469Z" fill="black"/>
<path d="M83.6094 23.7464C83.6094 23.7464 85.3226 39.3155 76.1678 41.8452C67.0131 44.375 64.8199 29.4817 65.1357 24.3308C65.4515 19.18 68.0294 16.6361 74.4457 16.4056C83.9378 16.0643 83.6094 23.7464 83.6094 23.7464Z" fill="#FFC3A7"/>
<path d="M69.9042 19.5269C69.9042 19.5269 69.7326 22.799 67.5558 23.4527L65.9905 28.2649C65.9905 28.2649 64.6789 26.1263 63.2379 25.3687C63.2379 25.3687 61.6463 19.0139 63.65 16.4889C65.6536 13.9639 68.4389 12.6838 75.1773 13.243C80.3063 13.6683 83.3068 17.298 84.2868 19.1446C84.6047 19.7432 85.3758 21.4255 83.5731 23.0621C83.5731 23.0621 83.5973 21.824 82.5447 20.3754C82.5447 20.3754 80.0889 25.3839 69.9042 19.5269Z" fill="black"/>
<path d="M61.1272 29.0909C61.6919 31.1454 63.3119 32.5032 64.7456 32.1241C66.1793 31.745 66.8846 29.7724 66.3198 27.7178C65.7556 25.6633 64.1351 24.3055 62.7014 24.6846C61.2672 25.0642 60.5625 27.0368 61.1272 29.0909Z" fill="#FFC3A7"/>
<path d="M74.3268 29.7774C74.3005 30.3066 74.5526 30.7492 74.89 30.7666C75.2274 30.7839 75.5216 30.3686 75.5474 29.8393C75.5737 29.3101 75.3216 28.8674 74.9842 28.8501C74.6474 28.8333 74.3526 29.2486 74.3268 29.7774Z" fill="black"/>
<path d="M81.3878 30.2106C81.3357 30.7063 81.5394 31.1347 81.8425 31.1667C82.1457 31.1988 82.4341 30.8234 82.4862 30.3272C82.5383 29.8315 82.3346 29.4031 82.0315 29.371C81.7278 29.339 81.4399 29.715 81.3878 30.2106Z" fill="black"/>
<path d="M72.311 25.5843C72.311 25.5843 74.7358 26.1026 74.8973 23.8086" stroke="black" stroke-miterlimit="10" stroke-linecap="round"/>
<path d="M80.5273 25.3965C80.5273 25.3965 81.1452 27.5288 82.9679 26.2943" stroke="black" stroke-miterlimit="10" stroke-linecap="round"/>
<path d="M73.9031 38.3067C73.9031 38.3067 73.1036 35.0571 70.6226 36.9201L73.9031 38.3067Z" fill="black"/>
<path d="M62.5662 27.3015C62.5662 27.3015 64.1788 25.9175 65.0598 28.4483C65.0598 28.4483 64.1177 29.4459 64.7125 30.2287C64.7125 30.2287 63.7835 30.4388 63.3256 29.6218" stroke="black" stroke-miterlimit="10" stroke-linecap="round" stroke-linejoin="round"/>
<path d="M63.2646 28.2689C63.2646 28.2689 63.3546 27.7066 63.9804 27.0645" stroke="black" stroke-miterlimit="10" stroke-linecap="round" stroke-linejoin="round"/>
<path d="M79.9878 30.1312C79.9878 31.6349 80.9141 32.8541 82.0573 32.8541C83.2004 32.8541 84.1267 31.6349 84.1267 30.1312C84.1267 28.6274 83.2004 27.4082 82.0573 27.4082C80.9141 27.4082 79.9878 28.6274 79.9878 30.1312Z" stroke="white" stroke-miterlimit="10"/>
<path d="M72.2424 29.7583C72.2424 31.3518 73.4219 32.6435 74.8766 32.6435C76.3314 32.6435 77.5108 31.3518 77.5108 29.7583C77.5108 28.1647 76.3314 26.873 74.8766 26.873C73.4219 26.8725 72.2424 28.1647 72.2424 29.7583Z" stroke="white" stroke-miterlimit="10"/>
<path d="M80.081 30.9186C80.081 30.9186 79.4404 28.2067 77.3625 30.7265" stroke="white" stroke-miterlimit="10"/>
<path d="M72.2978 28.6667L66.1763 27.291" stroke="white" stroke-miterlimit="10"/>
<path d="M80.3373 32.1191C80.6405 32.503 80.7036 32.9603 80.5505 33.4549C80.3994 33.9432 79.9004 34.2404 79.3952 34.2299C79.161 34.2252 78.9362 34.1621 78.7147 34.0928C78.6178 34.0629 78.4262 33.9595 78.322 34.0052C77.8173 34.2278 77.2294 33.7883 77.3978 33.4449" stroke="black" stroke-miterlimit="10" stroke-linecap="round"/>
</g>
<defs>
<clipPath id="clip0_114_21">
<rect width="300" height="220" fill="white"/>
</clipPath>
</defs>
</svg>
