<svg width="231" height="28" viewBox="0 0 231 28" fill="none" xmlns="http://www.w3.org/2000/svg">
<path d="M6.3126 14.3696L3.32914 7.31999C3.25063 7.13391 3.16688 6.93189 3.0779 6.71391C2.99415 6.49062 2.92088 6.28859 2.85807 6.10784C2.87377 6.25138 2.88424 6.44277 2.88947 6.68201C2.89994 6.91594 2.90517 7.12859 2.90517 7.31999V14.1782H1.53906V3.01366H2.82666L6.02995 10.5258C6.07706 10.6428 6.12417 10.7651 6.17128 10.8926C6.21838 11.0202 6.26549 11.1478 6.3126 11.2754C6.35447 11.1532 6.39896 11.0309 6.44607 10.9086C6.49318 10.781 6.5429 10.6534 6.59524 10.5258L9.78283 3.01366H11.0861V14.1782H9.72002V7.31999C9.72002 7.12859 9.72264 6.91328 9.72787 6.67404C9.73834 6.42948 9.74619 6.23543 9.75143 6.09189C9.68862 6.27265 9.61011 6.47999 9.51589 6.71391C9.42691 6.94784 9.34316 7.16049 9.26465 7.35189L6.3126 14.3696ZM15.6682 14.1782V3.01366H17.0343V14.1782H15.6682ZM25.8779 14.3696C25.0457 14.3696 24.3339 14.2101 23.7424 13.8911C23.151 13.5668 22.6694 13.1309 22.2978 12.5833C21.9262 12.0304 21.6514 11.411 21.4734 10.7252C21.3007 10.034 21.2143 9.32429 21.2143 8.59594C21.2143 7.8729 21.3059 7.16847 21.4891 6.48265C21.6776 5.79682 21.9602 5.18011 22.3371 4.63252C22.7191 4.07961 23.2033 3.641 23.7895 3.3167C24.3758 2.98708 25.0719 2.82227 25.8779 2.82227C26.5584 2.82227 27.1237 2.9153 27.5738 3.10138C28.0292 3.28746 28.4034 3.53201 28.6965 3.83505C28.9896 4.13277 29.2383 4.4491 29.4424 4.78404L28.2176 5.50176C27.9664 5.13492 27.6654 4.81594 27.3147 4.5448C26.964 4.26834 26.4851 4.13011 25.8779 4.13011C25.2656 4.13011 24.75 4.26568 24.3313 4.53682C23.9178 4.80265 23.5854 5.15619 23.3342 5.59746C23.0829 6.03872 22.9023 6.52252 22.7924 7.04885C22.6825 7.56986 22.6275 8.08556 22.6275 8.59594C22.6275 9.17011 22.6904 9.72303 22.816 10.2547C22.9416 10.7863 23.1353 11.2621 23.397 11.6821C23.6587 12.1021 23.9937 12.4344 24.4019 12.679C24.8154 12.9235 25.3074 13.0458 25.8779 13.0458C26.3752 13.0458 26.807 12.9368 27.1734 12.7188C27.545 12.5009 27.8329 12.2005 28.037 11.8177C28.2412 11.4296 28.3432 10.983 28.3432 10.478V10.0314H26.349V8.75543H29.7721V10.0952C29.7721 11.0202 29.5994 11.8018 29.254 12.4397C28.9137 13.0724 28.4479 13.5535 27.8565 13.8832C27.2702 14.2075 26.6107 14.3696 25.8779 14.3696ZM34.0664 14.1782V3.01366H35.4326V7.73467H40.6144V3.01366H41.9805V14.1782H40.6144V9.04252H35.4326V14.1782H34.0664ZM48.9255 14.1782V4.33746H45.8635V3.01366H53.3535V4.33746H50.2916V14.1782H48.9255ZM59.9681 14.1782V9.79214L56.2309 3.01366H57.7698L60.6433 8.43644L63.5483 3.01366H65.04L61.3342 9.76024V14.1782H59.9681Z" fill="white"/>
<path d="M91.5849 27.6465L85.0527 8.29464H87.584L92.1293 22.2833C92.2109 22.5413 92.3017 22.8454 92.4015 23.1956C92.5103 23.5366 92.6101 23.8867 92.7009 24.2461C92.7825 23.8867 92.8687 23.5412 92.9594 23.2094C93.0592 22.8777 93.1545 22.569 93.2452 22.2833L97.6544 8.29464H100.186L93.6807 27.6465H91.5849ZM104.998 27.6465V8.29464H116.32V10.5616H107.366V16.5054H113.272V18.7723H107.366V25.352H116.919V27.6465H104.998ZM122.466 27.6465V8.29464H124.862L133.299 22.0621C133.435 22.2925 133.567 22.5229 133.694 22.7533C133.821 22.9836 133.952 23.2325 134.088 23.4997C134.079 23.2601 134.066 23.0205 134.047 22.7809C134.038 22.5413 134.034 22.3109 134.034 22.0898V8.29464H136.402V27.6465H134.115L125.542 13.8238C125.424 13.6118 125.297 13.3906 125.161 13.1603C125.034 12.9299 124.907 12.6995 124.78 12.4691C124.798 12.6719 124.812 12.893 124.821 13.1326C124.83 13.3722 124.834 13.6026 124.834 13.8238V27.6465H122.466ZM147.073 27.6465V10.5892H141.766V8.29464H154.749V10.5892H149.441V27.6465H147.073ZM166.915 27.9783C165.355 27.9783 164.071 27.6834 163.064 27.0936C162.057 26.5039 161.309 25.6422 160.819 24.5088C160.329 23.3753 160.084 21.9976 160.084 20.3758V8.29464H162.452V20.3758C162.452 22.0529 162.796 23.3615 163.486 24.3014C164.185 25.2414 165.328 25.7113 166.915 25.7113C167.922 25.7113 168.757 25.5178 169.419 25.1308C170.091 24.7345 170.59 24.1448 170.916 23.3615C171.243 22.569 171.406 21.5737 171.406 20.3758V8.29464H173.774V20.3758C173.774 21.629 173.629 22.7302 173.339 23.6794C173.048 24.6286 172.617 25.4257 172.046 26.0707C171.474 26.7066 170.758 27.1858 169.896 27.5083C169.043 27.8216 168.049 27.9783 166.915 27.9783ZM180.346 27.6465V8.29464H187.858C189.382 8.29464 190.58 8.56188 191.451 9.09636C192.331 9.63084 192.952 10.322 193.315 11.1698C193.687 12.0084 193.873 12.8838 193.873 13.7961C193.873 14.561 193.723 15.3166 193.424 16.063C193.134 16.8003 192.662 17.4499 192.009 18.0121C191.355 18.5742 190.498 18.9658 189.436 19.187L193.519 27.6465H190.852L186.932 19.3529H182.714V27.6465H180.346ZM182.714 17.1136H187.912C188.801 17.1136 189.505 16.9523 190.022 16.6298C190.548 16.3072 190.92 15.8972 191.138 15.3995C191.364 14.9019 191.478 14.3859 191.478 13.8514C191.478 13.3722 191.373 12.8792 191.165 12.3724C190.965 11.8563 190.607 11.4232 190.09 11.073C189.573 10.7136 188.847 10.5339 187.912 10.5339H182.714V17.1136ZM199.807 27.6465V8.29464H211.13V10.5616H202.175V16.5054H208.082V18.7723H202.175V25.352H211.729V27.6465H199.807ZM222.748 27.9783C221.641 27.9783 220.639 27.794 219.741 27.4254C218.843 27.0475 218.08 26.5361 217.454 25.891C216.838 25.2368 216.388 24.4949 216.107 23.6656L218.339 22.8362C218.72 23.6932 219.296 24.389 220.067 24.9234C220.848 25.4487 221.759 25.7113 222.803 25.7113C223.946 25.7113 224.858 25.4349 225.538 24.882C226.219 24.3199 226.559 23.5089 226.559 22.4492C226.559 21.7027 226.355 21.0761 225.946 20.5693C225.538 20.0624 225.007 19.6385 224.354 19.2976C223.701 18.9474 223.002 18.6341 222.258 18.3576C221.596 18.1088 220.934 17.8324 220.271 17.5283C219.609 17.2242 219.006 16.8648 218.462 16.4501C217.926 16.0262 217.495 15.5147 217.169 14.9158C216.842 14.3075 216.679 13.5842 216.679 12.7456C216.679 11.8793 216.91 11.0868 217.373 10.3681C217.836 9.64005 218.502 9.0595 219.373 8.62638C220.244 8.18406 221.297 7.96289 222.531 7.96289C223.538 7.96289 224.422 8.11494 225.184 8.41904C225.955 8.71393 226.586 9.124 227.076 9.64927C227.575 10.1653 227.92 10.7551 228.11 11.4186L225.933 12.165C225.706 11.6213 225.289 11.1606 224.681 10.7827C224.082 10.3957 223.311 10.2022 222.367 10.2022C221.36 10.2022 220.566 10.428 219.986 10.8795C219.414 11.331 219.128 11.9531 219.128 12.7456C219.128 13.3446 219.319 13.8468 219.7 14.2523C220.09 14.6485 220.598 14.9941 221.224 15.289C221.85 15.5839 222.521 15.8695 223.238 16.146C223.91 16.404 224.581 16.6989 225.252 17.0306C225.933 17.3532 226.554 17.7494 227.117 18.2194C227.688 18.6894 228.146 19.2653 228.491 19.9472C228.836 20.62 229.008 21.4355 229.008 22.3939C229.008 23.5826 228.736 24.5917 228.192 25.4211C227.647 26.2504 226.903 26.8863 225.96 27.3286C225.016 27.7617 223.946 27.9783 222.748 27.9783Z" fill="white"/>
<path d="M65.9502 27.6456L79.6985 0H83.7463L70.1375 27.6456H65.9502Z" fill="white"/>
<path d="M65.9502 27.6456L79.6985 0H83.7463L70.1375 27.6456H65.9502Z" fill="url(#paint0_linear_109_66)"/>
<defs>
<linearGradient id="paint0_linear_109_66" x1="74.3248" y1="0" x2="74.3248" y2="27.6456" gradientUnits="userSpaceOnUse">
<stop stop-color="#FBBA16"/>
<stop offset="0.603242" stop-color="#E83B1D"/>
</linearGradient>
</defs>
</svg>
