<svg width="32" height="32" viewBox="0 0 32 32" fill="none" xmlns="http://www.w3.org/2000/svg">
<path d="M0 24.7478C0.533333 24.7654 1.06667 24.7822 1.60001 24.7981C6.40001 24.9412 11.2 25.0127 16.0001 25.0127C20.8 25.0127 25.6 24.9412 30.4001 24.7981C30.9334 24.7822 31.4666 24.7654 32 24.7478C31.4666 24.7302 30.9334 24.7134 30.4001 24.6975C25.6 24.5544 20.8 24.4829 16.0001 24.4829C11.2 24.4829 6.40001 24.5544 1.60001 24.6975C1.06667 24.7134 0.533333 24.7302 0 24.7478Z" fill="#014479"/>
<path d="M32 22.2058C31.4645 22.2565 30.9292 22.3081 30.3938 22.3605C25.8077 22.8095 21.2298 23.3228 16.66 23.9004C16.4375 23.9273 16.2133 23.9618 16.0227 23.962C16.0162 23.962 16.0096 23.962 16.0031 23.9619C15.8176 23.9594 15.6004 23.9267 15.3853 23.9006C10.8005 23.3223 6.20748 22.8087 1.60621 22.3598C1.07092 22.3077 0.535515 22.2563 0 22.2058C0.531049 22.2914 1.06221 22.376 1.59348 22.4597C6.1602 23.1797 10.7352 23.8347 15.3184 24.4252C15.5349 24.4514 15.7479 24.487 15.9973 24.4917C16.0058 24.4918 16.0142 24.4918 16.0227 24.4918C16.2822 24.4898 16.5034 24.4518 16.7271 24.4249C21.2952 23.8343 25.855 23.1794 30.4067 22.4602C30.9379 22.3764 31.469 22.2915 32 22.2058Z" fill="#014479"/>
<path d="M32 19.437C31.4628 19.5577 30.9259 19.6791 30.3891 19.8015C26.005 20.8008 21.6356 21.8572 17.2809 22.9705C16.8453 23.077 16.4063 23.2146 16.0226 23.2158C16.0162 23.2158 16.0099 23.2158 16.0035 23.2156C15.625 23.21 15.1927 23.0759 14.7641 22.9713C10.3946 21.8569 6.01028 20.7999 1.6112 19.8003C1.07435 19.6783 0.537287 19.5573 0 19.437C0.52847 19.5914 1.05716 19.7451 1.58607 19.8978C5.92013 21.1496 10.269 22.344 14.6327 23.4809C15.0641 23.5857 15.4857 23.7318 15.9979 23.7454C16.0062 23.7456 16.0145 23.7456 16.0227 23.7456C16.5449 23.7373 16.9746 23.5862 17.4127 23.4799C21.7613 22.3432 26.0951 21.1496 30.4142 19.899C30.9431 19.7457 31.4717 19.5918 32 19.437Z" fill="#014479"/>
<path d="M32 16.6682C31.462 16.8587 30.9243 17.05 30.3868 17.2421C26.1873 18.7433 22.0072 20.2947 17.8467 21.8965C17.2236 22.125 16.5957 22.425 16.0224 22.4288C16.0164 22.4288 16.0103 22.4287 16.0042 22.4287C15.4363 22.4186 14.8147 22.124 14.1978 21.8981C10.0227 20.295 5.82807 18.7425 1.61378 17.2405C1.07617 17.0489 0.538243 16.8582 0 16.6682C0.525465 16.8911 1.05125 17.1131 1.57736 17.3343C5.7015 19.0686 9.84526 20.7522 14.0086 22.3854C14.6301 22.611 15.2287 22.9312 15.9987 22.9584C16.0068 22.9584 16.0148 22.9586 16.0227 22.9586C16.8029 22.9388 17.4089 22.6113 18.0363 22.3832C22.1848 20.751 26.3139 19.0686 30.4233 17.3359C30.9492 17.1141 31.4747 16.8916 32 16.6682Z" fill="#014479"/>
<path d="M32 13.6726C31.4621 13.9399 30.9247 14.2079 30.3876 14.4767C26.3661 16.4897 22.368 18.5462 18.3931 20.6465C17.598 21.0445 16.7999 21.5781 16.0223 21.5879C16.0165 21.5879 16.0108 21.5878 16.005 21.5878C15.2328 21.5703 14.4404 21.0438 13.6506 20.6492C9.6616 18.5471 5.64919 16.489 1.61336 14.4748C1.07599 14.2066 0.538203 13.9392 0 13.6726C0.521601 13.9704 1.04362 14.2674 1.56605 14.5637C5.48966 16.7885 9.43667 18.9695 13.4071 21.1063C14.204 21.5004 14.9518 22.0684 15.9999 22.1176C16.0075 22.1176 16.015 22.1177 16.0227 22.1177C17.0809 22.0778 17.8349 21.5 18.6369 21.1032C22.593 18.9676 26.5257 16.7884 30.435 14.5655C30.9571 14.2686 31.4788 13.971 32 13.6726Z" fill="#014479"/>
<path d="M32 10.4497C31.4636 10.8001 30.9276 11.1512 30.3921 11.503C26.5322 14.0393 22.6983 16.6133 18.8905 19.2251C17.95 19.8315 17.016 20.6651 16.0222 20.6873C16.0168 20.6873 16.0113 20.6873 16.0059 20.6873C15.0177 20.656 14.0882 19.8314 13.152 19.2287C9.33065 16.6148 5.48308 14.0389 1.60926 11.5009C1.07335 11.1498 0.536924 10.7994 0 10.4497C0.516841 10.8284 1.03418 11.2064 1.55204 11.5837C5.29519 14.3107 9.06459 16.9997 12.8602 19.6508C13.8081 20.2519 14.6595 21.1335 16.0014 21.217C16.0084 21.217 16.0154 21.217 16.0224 21.217C17.3746 21.1443 18.2308 20.251 19.1826 19.6465C22.9644 16.9973 26.72 14.3104 30.4495 11.5857C30.9668 11.2078 31.4837 10.8291 32 10.4497Z" fill="#014479"/>
<path d="M32 7C31.4662 7.43917 30.933 7.87902 30.4003 8.31953C26.6789 11.3972 22.9856 14.5074 19.3206 17.6501C18.2657 18.4923 17.2407 19.6801 16.0219 19.7252C16.0169 19.7252 16.012 19.7251 16.007 19.7251C14.7946 19.6703 13.7722 18.4926 12.7205 17.6546C9.04248 14.5094 5.33617 11.397 1.60157 8.31728C1.06829 7.87751 0.534433 7.43843 0 7C0.511342 7.46514 1.02326 7.92963 1.53576 8.39345C5.12483 11.6416 8.74221 14.8569 12.3879 18.0395C13.4578 18.8755 14.3575 20.1201 16.0028 20.2549C16.0093 20.2549 16.0158 20.255 16.0223 20.255C17.6785 20.1315 18.5805 18.8738 19.6534 18.0343C23.286 14.854 26.8902 11.6411 30.4663 8.39559C30.9781 7.93107 31.4893 7.46586 32 7Z" fill="#BB992B"/>
</svg>
