<svg width="242" height="136" viewBox="0 0 242 136" fill="none" xmlns="http://www.w3.org/2000/svg">
<path d="M0 134C4.02685 134.1 8.05371 134.195 12.0806 134.285C48.3223 135.095 84.5639 135.5 120.806 135.5C157.047 135.5 193.289 135.095 229.531 134.285C233.558 134.195 237.584 134.1 241.611 134C237.584 133.9 233.558 133.805 229.531 133.715C193.289 132.905 157.047 132.5 120.806 132.5C84.5639 132.5 48.3223 132.905 12.0806 133.715C8.05371 133.805 4.02685 133.9 0 134Z" fill="#014479"/>
<path d="M241.611 114.808C237.572 115.224 233.534 115.644 229.496 116.07C194.902 119.715 160.354 123.724 125.852 128.098C124.171 128.301 122.481 128.565 120.977 128.568C120.926 128.568 120.875 128.568 120.824 128.567C119.362 128.546 117.726 128.296 116.101 128.099C81.4858 123.721 46.824 119.71 12.1154 116.065C8.07758 115.641 4.03911 115.222 0 114.808C4.01382 115.421 8.02826 116.028 12.0433 116.631C46.5562 121.81 81.1159 126.623 115.722 131.07C117.356 131.268 118.968 131.534 120.79 131.567C120.853 131.568 120.915 131.568 120.977 131.568C122.871 131.555 124.544 131.271 126.232 131.068C160.724 126.621 195.17 121.81 229.569 116.635C233.583 116.031 237.598 115.422 241.611 114.808Z" fill="#014479"/>
<path d="M241.611 93.9027C237.564 94.8459 233.517 95.7938 229.472 96.7467C196.432 104.529 163.475 112.634 130.602 121.063C127.31 121.866 124.004 122.918 120.976 122.934C120.926 122.934 120.877 122.933 120.827 122.933C117.843 122.883 114.589 121.859 111.35 121.069C78.364 112.633 45.2946 104.523 12.1414 96.7383C8.09549 95.7883 4.04838 94.8431 0 93.9027C3.99845 95.0367 7.99813 96.1659 11.9991 97.2903C44.7841 106.504 77.653 115.392 110.606 123.955C113.86 124.746 117.054 125.838 120.795 125.933C120.856 125.933 120.916 125.934 120.977 125.934C124.789 125.878 128.042 124.75 131.347 123.947C164.187 115.387 196.942 106.504 229.615 97.2985C233.615 96.1714 237.614 95.0395 241.611 93.9027Z" fill="#014479"/>
<path d="M241.611 72.9974C237.561 74.4666 233.512 75.9404 229.465 77.4189C197.842 88.9721 166.33 100.81 134.928 112.932C130.219 114.657 125.498 116.948 120.976 116.991C120.928 116.991 120.88 116.991 120.832 116.991C116.353 116.899 111.682 114.65 107.019 112.945C75.5075 100.812 43.8845 88.9666 12.1502 77.4072C8.10196 75.9327 4.05186 74.4627 0 72.9974C3.9795 74.6492 7.96085 76.2962 11.944 77.9386C43.1677 90.8134 74.5026 103.402 105.949 115.704C110.636 117.409 115.178 119.802 120.801 119.991C120.86 119.991 120.918 119.991 120.977 119.991C126.672 119.858 131.268 117.411 136.001 115.688C167.335 103.394 198.559 90.814 229.672 77.9501C233.654 76.3038 237.633 74.653 241.611 72.9974Z" fill="#014479"/>
<path d="M241.611 50.3787C237.566 52.426 233.523 54.4777 229.482 56.5338C199.224 71.9303 169.098 87.5741 139.104 103.465C133.094 106.469 127.111 110.54 120.975 110.642C120.929 110.642 120.884 110.641 120.838 110.641C114.748 110.479 108.807 106.465 102.837 103.486C72.7361 87.5813 42.5028 71.926 12.1368 56.5195C8.09355 54.4682 4.04795 52.4212 0 50.3787C3.95394 52.5977 7.91022 54.8124 11.8688 57.0226C41.5994 73.6223 71.4624 89.973 101.458 106.075C107.468 109.05 113.156 113.3 120.81 113.641C120.865 113.641 120.921 113.642 120.976 113.642C128.702 113.37 134.437 109.048 140.485 106.051C170.372 89.9601 200.127 73.622 229.75 57.0366C233.706 54.8217 237.66 52.6024 241.611 50.3787Z" fill="#014479"/>
<path d="M241.611 26.046C237.58 28.7189 233.551 31.3959 229.525 34.0769C200.504 53.4046 171.631 72.9458 142.905 92.7005C135.794 97.2779 128.815 103.628 120.973 103.844C120.931 103.844 120.888 103.843 120.846 103.843C113.05 103.558 106.107 97.2777 99.0267 92.7288C70.1985 72.9579 41.2218 53.402 12.0965 34.0609C8.06717 31.3851 4.035 28.7135 0 26.046C3.92128 28.878 7.84541 31.706 11.7724 34.5298C40.1578 54.9411 68.6919 75.1376 97.3744 95.1192C104.52 99.6594 111.022 106.262 120.82 106.843C120.872 106.843 120.923 106.844 120.975 106.844C130.846 106.342 137.384 99.6529 144.56 95.087C173.138 75.12 201.568 54.9395 229.85 34.5454C233.773 31.7164 237.694 28.8833 241.611 26.046Z" fill="#014479"/>
<path d="M241.611 0C237.603 3.3411 233.597 6.68599 229.595 10.0347C201.634 33.4303 173.833 57.0103 146.191 80.7748C138.209 87.1307 130.586 96.1647 120.971 96.5795C120.932 96.5795 120.893 96.5794 120.854 96.5791C111.291 96.0896 103.689 87.1347 95.7299 80.8095C67.9904 57.0267 40.0905 33.4295 12.0303 10.0178C8.02345 6.67473 4.01336 3.33548 0 0C3.8826 3.48681 7.76847 6.96984 11.6576 10.4491C38.8937 34.8146 66.2901 58.9946 93.8468 82.9891C101.908 89.3025 108.816 98.6363 120.831 99.579C120.878 99.5794 120.926 99.5795 120.974 99.5795C133.065 98.721 139.992 89.2912 148.076 82.9502C175.533 58.9731 202.831 34.8115 229.968 10.4654C233.853 6.98074 237.734 3.49226 241.611 0Z" fill="#BB992B"/>
</svg>
