<svg width="200" height="24" viewBox="0 0 200 24" fill="none" xmlns="http://www.w3.org/2000/svg">
<path d="M5.46545 12.3157L2.88237 6.27316C2.81439 6.11367 2.74189 5.9405 2.66485 5.75367C2.59234 5.56227 2.52889 5.38911 2.47451 5.23417C2.48811 5.35721 2.49717 5.52126 2.5017 5.72632C2.51077 5.92683 2.5153 6.10911 2.5153 6.27316V12.1516H1.33252V2.58202H2.44732L5.22074 9.02101C5.26152 9.12126 5.30231 9.22607 5.34309 9.33544C5.38388 9.4448 5.42466 9.55417 5.46545 9.66354C5.5017 9.55873 5.54022 9.45392 5.58101 9.34911C5.62179 9.23974 5.66485 9.13037 5.71016 9.02101L8.46998 2.58202H9.59838V12.1516H8.4156V6.27316C8.4156 6.10911 8.41787 5.92455 8.4224 5.71949C8.43146 5.50987 8.43826 5.34354 8.44279 5.2205C8.38841 5.37544 8.32044 5.55316 8.23886 5.75367C8.16183 5.95417 8.08932 6.13645 8.02134 6.3005L5.46545 12.3157ZM13.5655 12.1516V2.58202H14.7483V12.1516H13.5655ZM22.4051 12.3157C21.6846 12.3157 21.0683 12.179 20.5562 11.9056C20.0441 11.6276 19.6272 11.2539 19.3055 10.7846C18.9837 10.3106 18.7458 9.77974 18.5917 9.19189C18.4422 8.59949 18.3674 7.99113 18.3674 7.36683C18.3674 6.74708 18.4467 6.14329 18.6053 5.55544C18.7684 4.96759 19.0132 4.43898 19.3394 3.96961C19.6703 3.49569 20.0894 3.11974 20.597 2.84177C21.1045 2.55923 21.7073 2.41797 22.4051 2.41797C22.9943 2.41797 23.4837 2.49772 23.8734 2.65721C24.2677 2.8167 24.5917 3.02632 24.8455 3.28607C25.0993 3.54126 25.3145 3.8124 25.4912 4.09949L24.4308 4.71468C24.2133 4.40025 23.9527 4.12683 23.6491 3.89442C23.3455 3.65746 22.9308 3.53898 22.4051 3.53898C21.8749 3.53898 21.4286 3.65518 21.066 3.88759C20.708 4.11544 20.4203 4.41848 20.2027 4.7967C19.9852 5.17493 19.8289 5.58961 19.7337 6.04075C19.6385 6.48734 19.5909 6.92936 19.5909 7.36683C19.5909 7.85898 19.6453 8.33291 19.7541 8.7886C19.8629 9.2443 20.0305 9.65215 20.2571 10.0121C20.4837 10.3721 20.7737 10.657 21.1272 10.8666C21.4852 11.0762 21.9112 11.181 22.4051 11.181C22.8357 11.181 23.2095 11.0876 23.5268 10.9008C23.8485 10.7139 24.0977 10.4565 24.2745 10.1283C24.4512 9.79569 24.5396 9.41291 24.5396 8.97999V8.59721H22.813V7.50354H25.7768V8.65189C25.7768 9.4448 25.6272 10.1147 25.3281 10.6615C25.0335 11.2038 24.6302 11.6162 24.1181 11.8987C23.6106 12.1767 23.0396 12.3157 22.4051 12.3157ZM29.4947 12.1516V2.58202H30.6775V6.6286H35.1639V2.58202H36.3467V12.1516H35.1639V7.74961H30.6775V12.1516H29.4947ZM42.3597 12.1516V3.7167H39.7087V2.58202H46.1935V3.7167H43.5425V12.1516H42.3597ZM51.9204 12.1516V8.39215L48.6848 2.58202H50.0171L52.505 7.23012L55.0201 2.58202H56.3117L53.1032 8.3648V12.1516H51.9204Z" fill="#030303"/>
<path d="M79.2943 23.6959L73.6387 7.10857H75.8302L79.7656 19.0989C79.8363 19.32 79.9148 19.5807 80.0012 19.8808C80.0955 20.1731 80.1819 20.4732 80.2604 20.7813C80.3311 20.4732 80.4057 20.177 80.4843 19.8927C80.5707 19.6083 80.6532 19.3437 80.7317 19.0989L84.5492 7.10857H86.7408L81.1088 23.6959H79.2943ZM90.9073 23.6959V7.10857H100.71V9.05166H92.9574V14.1463H98.071V16.0894H92.9574V21.7291H101.229V23.6959H90.9073ZM106.031 23.6959V7.10857H108.105L115.41 18.9093C115.528 19.1068 115.642 19.3042 115.752 19.5017C115.862 19.6992 115.976 19.9124 116.094 20.1415C116.086 19.9361 116.074 19.7308 116.058 19.5254C116.05 19.32 116.047 19.1225 116.047 18.933V7.10857H118.097V23.6959H116.117L108.694 11.8478C108.592 11.6661 108.482 11.4766 108.364 11.2791C108.254 11.0816 108.144 10.8842 108.034 10.6867C108.05 10.8605 108.062 11.05 108.07 11.2554C108.078 11.4608 108.082 11.6582 108.082 11.8478V23.6959H106.031ZM127.336 23.6959V9.07536H122.741V7.10857H133.982V9.07536H129.386V23.6959H127.336ZM144.515 23.9803C143.164 23.9803 142.053 23.7275 141.181 23.222C140.309 22.7165 139.661 21.9779 139.237 21.0064C138.813 20.0349 138.601 18.854 138.601 17.4638V7.10857H140.651V17.4638C140.651 18.9014 140.949 20.023 141.546 20.8287C142.151 21.6343 143.141 22.0372 144.515 22.0372C145.387 22.0372 146.11 21.8713 146.683 21.5396C147.265 21.1999 147.697 20.6944 147.979 20.023C148.262 19.3437 148.404 18.4906 148.404 17.4638V7.10857H150.454V17.4638C150.454 18.538 150.328 19.4819 150.077 20.2955C149.825 21.1091 149.452 21.7923 148.957 22.3452C148.463 22.8902 147.842 23.301 147.096 23.5774C146.357 23.846 145.497 23.9803 144.515 23.9803ZM156.144 23.6959V7.10857H162.647C163.967 7.10857 165.004 7.33764 165.758 7.79576C166.52 8.25389 167.058 8.84629 167.372 9.57298C167.694 10.2918 167.855 11.0421 167.855 11.8241C167.855 12.4797 167.726 13.1274 167.466 13.7672C167.215 14.3991 166.807 14.956 166.241 15.4378C165.676 15.9196 164.933 16.2553 164.014 16.4449L167.549 23.6959H165.24L161.846 16.5871H158.194V23.6959H156.144ZM158.194 14.6677H162.695C163.464 14.6677 164.073 14.5294 164.521 14.253C164.976 13.9765 165.298 13.625 165.487 13.1985C165.683 12.772 165.782 12.3296 165.782 11.8715C165.782 11.4608 165.691 11.0382 165.511 10.6038C165.338 10.1614 165.027 9.79019 164.58 9.49004C164.132 9.18199 163.504 9.02797 162.695 9.02797H158.194V14.6677ZM172.993 23.6959V7.10857H182.796V9.05166H175.043V14.1463H180.157V16.0894H175.043V21.7291H183.315V23.6959H172.993ZM192.856 23.9803C191.897 23.9803 191.029 23.8223 190.252 23.5063C189.474 23.1825 188.814 22.7441 188.272 22.1912C187.738 21.6304 187.349 20.9945 187.106 20.2837L189.038 19.5728C189.368 20.3074 189.867 20.9037 190.534 21.3618C191.21 21.8121 191.999 22.0372 192.903 22.0372C193.892 22.0372 194.682 21.8002 195.271 21.3263C195.86 20.8445 196.155 20.1494 196.155 19.241C196.155 18.6012 195.978 18.0641 195.624 17.6297C195.271 17.1953 194.811 16.8319 194.246 16.5397C193.68 16.2395 193.076 15.971 192.431 15.734C191.858 15.5207 191.285 15.2838 190.711 15.0231C190.138 14.7624 189.615 14.4544 189.144 14.099C188.681 13.7356 188.308 13.2972 188.025 12.7838C187.742 12.2625 187.601 11.6424 187.601 10.9237C187.601 10.1812 187.801 9.50189 188.202 8.88579C188.602 8.26179 189.179 7.76417 189.934 7.39293C190.688 7.01379 191.599 6.82422 192.667 6.82422C193.539 6.82422 194.305 6.95455 194.965 7.21521C195.632 7.46797 196.178 7.81946 196.602 8.26969C197.034 8.71202 197.333 9.21754 197.498 9.78624L195.613 10.426C195.416 9.96002 195.055 9.56508 194.529 9.24123C194.01 8.90948 193.343 8.74361 192.526 8.74361C191.654 8.74361 190.966 8.93713 190.464 9.32417C189.969 9.71121 189.721 10.2444 189.721 10.9237C189.721 11.4371 189.886 11.8676 190.216 12.2151C190.554 12.5548 190.994 12.851 191.536 13.1037C192.078 13.3565 192.659 13.6013 193.28 13.8383C193.861 14.0595 194.442 14.3122 195.024 14.5966C195.613 14.873 196.151 15.2127 196.638 15.6155C197.133 16.0183 197.529 16.512 197.828 17.0965C198.126 17.6731 198.276 18.3722 198.276 19.1936C198.276 20.2126 198.04 21.0775 197.569 21.7884C197.097 22.4993 196.453 23.0443 195.636 23.4234C194.819 23.7946 193.892 23.9803 192.856 23.9803Z" fill="#030303"/>
<path d="M57.0996 23.6962L69.0029 0H72.5075L60.725 23.6962H57.0996Z" fill="white"/>
<path d="M57.0996 23.6962L69.0029 0H72.5075L60.725 23.6962H57.0996Z" fill="url(#paint0_linear_109_66)"/>
<defs>
<linearGradient id="paint0_linear_109_66" x1="64.3504" y1="0" x2="64.3504" y2="23.6962" gradientUnits="userSpaceOnUse">
<stop stop-color="#FBBA16"/>
<stop offset="0.603242" stop-color="#E83B1D"/>
</linearGradient>
</defs>
</svg>
